<?xml version="1.0" encoding="UTF-8"?>
<svg version="1.1" xmlns="http://www.w3.org/2000/svg" width="1254" height="1254">
<path d="M0 0 C413.82 0 827.64 0 1254 0 C1254 413.82 1254 827.64 1254 1254 C840.18 1254 426.36 1254 0 1254 C0 840.18 0 426.36 0 0 Z " fill="#000000" transform="translate(0,0)"/>
<path d="M0 0 C2.66845703 1.609375 2.66845703 1.609375 5 4 C5.51904297 7.109375 5.51904297 7.109375 5.3671875 10.75 C5.34606903 11.40685791 5.32495056 12.06371582 5.30319214 12.74047852 C5.22848071 14.82905749 5.11658534 16.91337775 5 19 C4.94231445 20.31355469 4.88462891 21.62710937 4.82519531 22.98046875 C4.66301135 26.31635406 4.47222062 29.64694217 4.25537109 32.97949219 C4.12506681 34.9989646 4.0054667 37.01888131 3.88671875 39.0390625 C3.49067682 45.46804238 2.93134928 51.8303232 2.015625 58.2109375 C1.17711934 64.14989758 0.66368387 70.05361736 0.2890625 76.0390625 C0.2057518 77.33514435 0.2057518 77.33514435 0.12075806 78.65740967 C-0.10605192 82.22335961 -0.32869317 85.78923635 -0.52636719 89.35693359 C-0.67562866 92.00228415 -0.84769448 94.64535706 -1.0234375 97.2890625 C-1.06213959 98.09115143 -1.10084167 98.89324036 -1.14071655 99.71963501 C-1.48852956 104.62666997 -2.27455884 107.46911349 -6 111 C-9.24671352 111.81869577 -11.09109969 111.51056602 -14.00878906 109.87158203 C-16.27294775 108.33632445 -18.45207983 106.72425579 -20.625 105.0625 C-22.11315148 103.94382943 -23.60520785 102.83033013 -25.1015625 101.72265625 C-26.08116943 100.97640991 -26.08116943 100.97640991 -27.08056641 100.21508789 C-29.06578972 98.95835215 -30.70404918 98.43116897 -33 98 C-33.4026709 99.07822021 -33.4026709 99.07822021 -33.81347656 100.17822266 C-35.00590521 103.01404371 -36.39368704 105.51716239 -37.984375 108.1484375 C-38.58266113 109.14198242 -39.18094727 110.13552734 -39.79736328 111.15917969 C-40.4417334 112.22040039 -41.08610352 113.28162109 -41.75 114.375 C-42.4188623 115.48262695 -43.08772461 116.59025391 -43.77685547 117.73144531 C-45.84628325 121.15731245 -47.9230301 124.57870018 -50 128 C-50.92377441 129.52512207 -50.92377441 129.52512207 -51.86621094 131.08105469 C-60.69499113 145.65700796 -69.63847121 160.16050068 -78.63671875 174.63232422 C-84.9040228 184.71248634 -91.12103176 194.8173741 -97.21044922 205.00610352 C-101.50555821 212.18935086 -105.84127752 219.34760925 -110.1875 226.5 C-110.54396606 227.08672485 -110.90043213 227.67344971 -111.2677002 228.2779541 C-113.46991901 231.90255797 -115.67281467 235.52675008 -117.87591553 239.15081787 C-120.88559186 244.10190457 -123.89435443 249.05354594 -126.90231323 254.00567627 C-127.98928186 255.79485763 -129.07678202 257.58371515 -130.16430664 259.37255859 C-133.4759003 264.82239011 -136.77131925 270.28070917 -140.02246094 275.7668457 C-155.17698715 301.30739021 -155.17698715 301.30739021 -170.421875 305.4609375 C-178.55020735 307.1604979 -186.04373945 306.02733752 -193.16796875 301.67578125 C-201.00767782 296.07178659 -205.20190913 289.20235428 -209.625 280.8125 C-210.69070387 278.82444503 -211.75844827 276.83748269 -212.828125 274.8515625 C-213.36115234 273.86188477 -213.89417969 272.87220703 -214.44335938 271.85253906 C-216.68011149 267.75369783 -219.01596052 263.71685291 -221.375 259.6875 C-225.60940944 252.44388508 -229.73070286 245.14315503 -233.8125 237.8125 C-239.15993535 228.21474749 -244.62793678 218.69515277 -250.20629883 209.22973633 C-253.93560258 202.88819626 -257.51484275 196.47893873 -261 190 C-265.47419017 196.52082987 -269.54927539 203.21412538 -273.5 210.0625 C-274.74078741 212.20187976 -275.98167563 214.34120106 -277.22265625 216.48046875 C-277.85059082 217.56505371 -278.47852539 218.64963867 -279.12548828 219.76708984 C-281.47985385 223.82758853 -283.84808324 227.87988819 -286.21704102 231.93188477 C-291.05806327 240.21321346 -295.87513912 248.50774746 -300.66064453 256.82128906 C-306.10089128 266.2715354 -311.5515271 275.71578774 -317.0625 285.125 C-317.57433838 286.00687988 -318.08617676 286.88875977 -318.61352539 287.79736328 C-325.48679756 299.48158677 -333.0863857 310.08970285 -346.8125 313.75 C-358.8119072 314.69112998 -368.05130164 313.35358919 -377.60546875 305.47265625 C-382.57420343 300.34180951 -386.36521604 294.27158613 -390.36132812 288.37646484 C-393.12502187 284.3684501 -396.03326629 280.46924705 -398.9375 276.5625 C-403.70067591 270.12847527 -408.43476705 263.67493126 -413.125 257.1875 C-413.65730225 256.45281494 -414.18960449 255.71812988 -414.73803711 254.96118164 C-417.57791959 251.02640471 -420.3376959 247.05714763 -423 243 C-426.3345024 244.1115008 -426.76596736 244.67847115 -428.71484375 247.4375 C-429.4874353 248.51946655 -429.4874353 248.51946655 -430.27563477 249.62329102 C-430.82405029 250.40760498 -431.37246582 251.19191895 -431.9375 252 C-432.51234131 252.80945068 -433.08718262 253.61890137 -433.67944336 254.45288086 C-435.46008292 256.96363877 -437.23041669 259.48144179 -439 262 C-440.03317572 263.46011572 -441.0669968 264.91977507 -442.1015625 266.37890625 C-446.0589544 271.96665271 -449.99698512 277.56790029 -453.92578125 283.17578125 C-459.74723562 291.47198208 -465.66936592 299.68326158 -471.70727539 307.82348633 C-474.66056557 311.80861461 -477.58835355 315.80776034 -480.4609375 319.8515625 C-486.24602441 327.99362951 -492.02812165 335.81379628 -499 343 C-499.76441406 343.83789062 -500.52882813 344.67578125 -501.31640625 345.5390625 C-509.43927791 354.17042853 -519.4719141 362.04859054 -531.66015625 363.265625 C-536.49923076 363.23415134 -540.46328918 362.91019403 -545 361 C-544.47255159 356.66118412 -543.50331039 353.64602963 -541.21875 349.9296875 C-540.63279053 348.96530762 -540.04683105 348.00092773 -539.44311523 347.00732422 C-538.80188721 345.97365723 -538.16065918 344.93999023 -537.5 343.875 C-536.47978717 342.20363211 -535.45958331 340.5322587 -534.43980408 338.86062622 C-533.36305069 337.09906035 -532.2818825 335.34027063 -531.19970703 333.58203125 C-529.02316518 330.0428447 -526.86640722 326.49191337 -524.71484375 322.9375 C-521.86003822 318.22246873 -519.00152112 313.50974639 -516.13671875 308.80078125 C-513.51229084 304.48690861 -510.88967415 300.17194581 -508.26953125 295.85546875 C-502.26089227 285.96233211 -496.21179074 276.09644063 -490.10449219 266.26391602 C-485.52135215 258.87177688 -481.00627948 251.43910033 -476.5 244 C-470.96712508 234.86616535 -465.39970214 225.75564475 -459.75756836 216.6887207 C-456.90703184 212.10198493 -454.08596866 207.499404 -451.296875 202.875 C-450.36234497 201.32776245 -450.36234497 201.32776245 -449.40893555 199.74926758 C-448.21661372 197.77215426 -447.02772323 195.79296569 -445.84301758 193.8112793 C-439.56425234 183.40607057 -433.14456623 173.68810546 -421.6875 168.5 C-411.83702477 167.16434234 -402.30185365 166.8247436 -393.7890625 172.46484375 C-385.00527562 179.59984672 -378.6365917 189.31273956 -371.96435547 198.34375 C-369.57790252 201.57077065 -367.16567448 204.77785863 -364.75146484 207.98413086 C-362.49394106 210.98417768 -360.24736276 213.99233541 -358 217 C-357.39800781 217.76183594 -356.79601562 218.52367187 -356.17578125 219.30859375 C-355 221 -355 221 -355 223 C-354.34 223 -353.68 223 -353 223 C-352.74420166 222.30503418 -352.48840332 221.61006836 -352.22485352 220.89404297 C-350.85180156 217.64984167 -349.19142521 214.73042131 -347.40234375 211.6953125 C-347.05235825 211.09957932 -346.70237274 210.50384613 -346.34178162 209.89006042 C-345.21039892 207.96636113 -344.07403454 206.0456592 -342.9375 204.125 C-342.1522525 202.79206041 -341.36725991 201.45897063 -340.58251953 200.12573242 C-336.87701661 193.83631947 -333.14998627 187.56050232 -329.375 181.3125 C-321.68637543 168.56712619 -314.35890304 155.60414398 -306.95584106 142.69151306 C-305.95203109 140.94140116 -304.94714554 139.19191147 -303.94189453 137.44262695 C-302.68804983 135.26014268 -301.43627184 133.07646916 -300.18701172 130.89135742 C-284.91664298 104.32483675 -284.91664298 104.32483675 -270.37890625 98.84765625 C-260.4956867 96.3682821 -249.88792438 96.7533042 -241 102 C-234.28023853 107.0195719 -230.01135172 112.44819751 -226.125 119.8125 C-225.09317495 121.6905038 -224.06060807 123.56810019 -223.02734375 125.4453125 C-222.26526611 126.84958496 -222.26526611 126.84958496 -221.48779297 128.28222656 C-219.29235064 132.29267356 -216.9930917 136.23969782 -214.6875 140.1875 C-213.77939598 141.75228398 -212.87186119 143.31739843 -211.96484375 144.8828125 C-211.49159668 145.69911133 -211.01834961 146.51541016 -210.53076172 147.35644531 C-207.59775345 152.42161493 -204.67429317 157.49229557 -201.75 162.5625 C-201.12182373 163.65151611 -200.49364746 164.74053223 -199.84643555 165.86254883 C-196.88537125 170.99623724 -193.9248364 176.1302306 -190.96490479 181.26457214 C-189.95879848 183.00969045 -188.95256499 184.75473536 -187.94628906 186.49975586 C-186.69277317 188.67359645 -185.43949897 190.84757643 -184.18652344 193.02172852 C-183.6093457 194.02260498 -183.03216797 195.02348145 -182.4375 196.0546875 C-181.87804687 197.02760742 -181.31859375 198.00052734 -180.7421875 199.00292969 C-179.51325742 201.11704764 -178.26675425 203.22099794 -177.0078125 205.31738281 C-176.36585938 206.39084961 -175.72390625 207.46431641 -175.0625 208.5703125 C-174.47597656 209.53984863 -173.88945313 210.50938477 -173.28515625 211.50830078 C-172 214 -172 214 -172 217 C-171.34 217 -170.68 217 -170 217 C-169.60941406 215.92105469 -169.60941406 215.92105469 -169.2109375 214.8203125 C-167.94749653 211.87771773 -166.44449303 209.50827472 -164.625 206.875 C-161.03613446 201.58580396 -157.58638318 196.22561701 -154.1875 190.8125 C-150.33292066 184.68082094 -146.44731531 178.57240815 -142.5 172.5 C-137.09463501 164.1779942 -131.79394591 155.79184067 -126.50732422 147.39404297 C-124.04934377 143.49009799 -121.58768238 139.58848023 -119.125 135.6875 C-118.63523682 134.91164551 -118.14547363 134.13579102 -117.64086914 133.33642578 C-113.18379864 126.28102099 -108.70226138 119.2412805 -104.21801758 112.203125 C-99.90894322 105.43707533 -95.61952165 98.65889935 -91.35449219 91.86499023 C-88.88343207 87.93911227 -86.37765713 84.04227077 -83.80859375 80.1796875 C-83.29514404 79.40343018 -82.78169434 78.62717285 -82.25268555 77.82739258 C-81.27634868 76.35582846 -80.2925272 74.88919309 -79.30004883 73.4284668 C-76.97927838 69.92341007 -76 68.31197725 -76 64 C-77.51305013 62.36235984 -77.51305013 62.36235984 -79.62109375 61.01171875 C-80.3881665 60.47353516 -81.15523926 59.93535156 -81.94555664 59.38085938 C-82.76789795 58.82205078 -83.59023926 58.26324219 -84.4375 57.6875 C-86.09165413 56.5254628 -87.7453055 55.36270958 -89.3984375 54.19921875 C-90.93213261 53.13258376 -92.46597046 52.06615396 -94 51 C-95.8666156 49.68415122 -97.72474675 48.35586681 -99.5625 47 C-100.22378906 46.525625 -100.88507813 46.05125 -101.56640625 45.5625 C-103.58258669 43.36502813 -103.96010771 41.97862398 -104 39 C-101.10480164 33.58370194 -96.74780877 32.42330058 -91.25 30.625 C-89.27883574 29.94461989 -87.30888713 29.2607126 -85.33984375 28.57421875 C-83.63997314 27.98519775 -83.63997314 27.98519775 -81.90576172 27.38427734 C-73.82307392 24.54586297 -65.82741121 21.46048501 -57.8125 18.4375 C-54.48613772 17.18497099 -51.1592625 15.9338125 -47.83203125 14.68359375 C-47.0241214 14.38000443 -46.21621155 14.0764151 -45.38381958 13.7636261 C-6.06610761 -0.99038492 -6.06610761 -0.99038492 0 0 Z " fill="#FB9503" transform="translate(910,379)"/>
<path d="M0 0 C21.42494308 -0.41736902 42.21932192 0.74125252 63.11767578 5.61132812 C67.75971907 6.64363171 72.46413971 7.35344391 77.1640625 8.06640625 C77.1640625 8.72640625 77.1640625 9.38640625 77.1640625 10.06640625 C78.43121094 10.16308594 79.69835937 10.25976562 81.00390625 10.359375 C86.51295527 10.97484496 91.50445125 12.57517919 96.7265625 14.37890625 C97.62052734 14.67474609 98.51449219 14.97058594 99.43554688 15.27539062 C104.26672995 16.91170208 108.80648664 18.76528011 113.32641602 21.12695312 C115.01382022 21.98959845 116.75589678 22.74302902 118.5 23.484375 C141.85371114 33.56780039 162.89271436 47.57264332 182.1640625 64.06640625 C183.01742188 64.78957031 183.87078125 65.51273437 184.75 66.2578125 C188.382865 69.38423721 191.77891129 72.67124899 195.1640625 76.06640625 C190.70444631 77.80994971 186.23881432 79.53667791 181.7668457 81.24829102 C180.2471825 81.83260241 178.72924829 82.42143168 177.21313477 83.01489258 C175.03062246 83.86829709 172.84236076 84.70513697 170.65234375 85.5390625 C169.64111198 85.94053246 169.64111198 85.94053246 168.60945129 86.35011292 C164.74604972 87.80019877 162.11040521 88.44915717 158.1640625 87.06640625 C155.9375 85.421875 155.9375 85.421875 153.5390625 83.25390625 C133.99351274 66.76561494 110.12102741 55.48438977 86.1640625 47.06640625 C84.82405664 46.57987332 83.48420026 46.09292843 82.14453125 45.60546875 C72.65604494 42.27085695 63.03050995 39.94395434 53.1640625 38.06640625 C51.91326904 37.81052734 50.66247559 37.55464844 49.3737793 37.29101562 C38.04476261 35.09245771 27.03534881 34.6610927 15.51391602 34.78515625 C12.60094233 34.8164129 9.68851603 34.82616245 6.77539062 34.83203125 C-15.85160182 34.8359675 -15.85160182 34.8359675 -38.1484375 38.25390625 C-39.10919189 38.47167725 -40.06994629 38.68944824 -41.05981445 38.91381836 C-50.78802101 41.17821809 -60.33388943 44.00000449 -69.8359375 47.06640625 C-70.75640869 47.35112793 -71.67687988 47.63584961 -72.62524414 47.92919922 C-80.35859643 50.3866684 -87.60255829 53.52624068 -94.8984375 57.06640625 C-96.07293457 57.63528564 -97.24743164 58.20416504 -98.45751953 58.7902832 C-113.69524233 66.30516123 -127.70698837 75.29436075 -140.8359375 86.06640625 C-141.37460449 86.50355957 -141.91327148 86.94071289 -142.46826172 87.39111328 C-158.56878035 100.51821833 -172.84842888 115.08172471 -184.8359375 132.06640625 C-185.29049316 132.70819824 -185.74504883 133.34999023 -186.21337891 134.01123047 C-211.02814859 169.37888421 -226.21545012 209.9326687 -229.8359375 253.06640625 C-230.3928125 252.69128906 -230.9496875 252.31617188 -231.5234375 251.9296875 C-245.2875977 242.58912666 -245.2875977 242.58912666 -260.8359375 237.06640625 C-261.28209366 230.11042607 -259.63249774 223.69273654 -258.0859375 216.94140625 C-257.83328125 215.79414063 -257.580625 214.646875 -257.3203125 213.46484375 C-255.53374146 205.53246833 -253.3291736 197.80355448 -250.8359375 190.06640625 C-250.57844727 189.24446777 -250.32095703 188.4225293 -250.05566406 187.57568359 C-238.99553254 152.61696396 -219.98676681 120.51378793 -195.8359375 93.06640625 C-195.30677734 92.45112061 -194.77761719 91.83583496 -194.23242188 91.2019043 C-184.42532455 79.84275367 -173.74658974 69.20897862 -161.8359375 60.06640625 C-160.57347804 59.06473494 -159.31181923 58.06205403 -158.05078125 57.05859375 C-126.8246651 32.4324006 -86.91896888 10.52483969 -46.8359375 6.06640625 C-44.49894469 5.41268346 -42.16565876 4.74558792 -39.8359375 4.06640625 C-26.65632395 1.30920456 -13.42841997 0.31443959 0 0 Z " fill="#F9A603" transform="translate(627.8359375,290.93359375)"/>
<path d="M0 0 C3.65860404 2.41087203 7.22582682 4.89826141 10.75 7.5 C15.00074621 10.52518964 19.10424723 12.40898937 24.06640625 13.98046875 C26 15 26 15 26.70654297 16.81469727 C27.05260319 19.3917231 26.64991134 20.60989169 25.62890625 22.984375 C25.30615723 23.74637207 24.9834082 24.50836914 24.65087891 25.29345703 C24.29171387 26.10411621 23.93254883 26.91477539 23.5625 27.75 C23.19560059 28.59546387 22.82870117 29.44092773 22.45068359 30.31201172 C9.1948095 60.51318873 -9.01009848 90.03198069 -33 113 C-33.66 113 -34.32 113 -35 113 C-35.24105469 113.57621094 -35.48210937 114.15242187 -35.73046875 114.74609375 C-38.34661211 119.39075442 -43.00947066 122.55531996 -47 126 C-47.93972656 126.83789062 -48.87945313 127.67578125 -49.84765625 128.5390625 C-80.94861192 155.97324981 -120.79465018 176.50769185 -161.35449219 185.41748047 C-163.19518219 185.82278559 -165.03159975 186.24778794 -166.86425781 186.68798828 C-184.95962994 190.92935997 -202.78682172 191.50576977 -221.3125 191.5625 C-223.01256699 191.57550644 -223.01256699 191.57550644 -224.74697876 191.58877563 C-247.79567671 191.7111013 -269.9218141 188.63079071 -292 182 C-292.71075684 181.79181641 -293.42151367 181.58363281 -294.15380859 181.36914062 C-330.38438946 170.61822642 -364.82872571 151.05322027 -392.5 125.3125 C-394.72713291 123.25240206 -396.99966798 121.27490292 -399.3125 119.3125 C-402.94666228 116.1653904 -405.96177378 112.72182712 -409 109 C-407.70780778 105.40155984 -406.18791996 102.66866703 -403.8125 99.6796875 C-403.19632812 98.89722656 -402.58015625 98.11476563 -401.9453125 97.30859375 C-401.30335938 96.50550781 -400.66140625 95.70242188 -400 94.875 C-398.72836741 93.26886164 -397.45750137 91.66211601 -396.1875 90.0546875 C-395.62417969 89.34812012 -395.06085938 88.64155273 -394.48046875 87.91357422 C-393.25228498 86.32608998 -392.11335136 84.67002705 -391 83 C-387.70086135 84.43309342 -385.60713935 86.19035599 -383.12890625 88.78125 C-382.0296582 89.91373169 -382.0296582 89.91373169 -380.90820312 91.0690918 C-380.13412109 91.8712915 -379.36003906 92.67349121 -378.5625 93.5 C-371.44363668 100.74844038 -364.29819911 107.14244769 -356 113 C-355.21238281 113.58265625 -354.42476563 114.1653125 -353.61328125 114.765625 C-323.46292771 136.67454065 -289.61624288 149.76608559 -253 156 C-251.41058594 156.29197266 -251.41058594 156.29197266 -249.7890625 156.58984375 C-210.54827487 162.36054781 -162.91419643 157.34496786 -127.67578125 138.39453125 C-125 137 -125 137 -121.765625 135.640625 C-108.22208994 129.93179805 -95.62541929 121.923665 -84 113 C-83.42588379 112.56719727 -82.85176758 112.13439453 -82.26025391 111.68847656 C-43.58083664 82.50571424 -18.1878534 44.59214935 0 0 Z " fill="#FA8304" transform="translate(855,637)"/>
<path d="M0 0 C0.60199219 0.4434375 1.20398438 0.886875 1.82421875 1.34375 C3.18546875 2.21 3.18546875 2.21 4.57421875 3.09375 C9.80481452 8.32434577 12.50838777 14.68011064 13.13671875 21.96875 C12.98665569 30.04214272 9.18427129 36.86750861 3.76171875 42.65234375 C-2.42189153 48.05053579 -9.29815002 49.65389008 -17.32421875 49.55859375 C-24.03234977 49.05318662 -29.64386088 46.37662815 -34.17578125 41.34375 C-39.77898514 34.61535912 -42.14602037 29.16704809 -41.59375 20.3515625 C-40.37675434 11.5937433 -36.37431553 5.61837416 -29.52734375 -0.01171875 C-21.0498835 -5.9717606 -8.48205935 -5.64425391 0 0 Z " fill="#F99D03" transform="translate(368.17578125,567.65625)"/>
<path d="M0 0 C6.80045928 4.71845511 11.29961839 9.7738295 13 18 C13.4226631 23.44489524 13.74054404 28.77836787 12 34 C11.34 34 10.68 34 10 34 C9.7525 34.721875 9.505 35.44375 9.25 36.1875 C6.02063872 43.45356289 1.0294627 45.94881419 -6 49 C-12.42225597 51.14075199 -19.01184092 50.84441454 -25.1875 48.0625 C-31.94155591 44.24452254 -37.27569816 38.77410822 -40 31.4375 C-41.9486317 24.1491113 -41.46601586 17.73584213 -38 11 C-34.19353127 4.60845282 -29.32027105 -0.26704864 -22.1171875 -2.61328125 C-14.7062437 -3.96694073 -6.58521228 -3.93522746 0 0 Z " fill="#F88E03" transform="translate(914,567)"/>
<path d="M0 0 C5.14747353 2.30748813 6.89027678 4.8721175 9 10 C9.3098809 12.76938608 9.46600848 15.24245208 9.4375 18 C9.4674707 19.02867187 9.4674707 19.02867187 9.49804688 20.078125 C9.49316402 25.19535297 8.17410875 28.05301347 5 32 C0.44994802 35.99853053 -3.70888864 36.28681525 -9.5625 36.21875 C-12.7530894 35.93241505 -14.53587296 35.02928109 -17 33 C-17.69222656 32.52949219 -18.38445313 32.05898438 -19.09765625 31.57421875 C-22.16672137 27.42121277 -21.61792496 23.0866096 -21.5625 18.0625 C-21.58634766 17.07314453 -21.61019531 16.08378906 -21.63476562 15.06445312 C-21.62012985 7.80998657 -21.62012985 7.80998657 -18.65234375 3.93359375 C-12.35624372 -0.65634663 -7.69895492 -0.75758474 0 0 Z " fill="#E68105" transform="translate(551,892)"/>
<path d="M0 0 C3.320625 -0.12375 6.64125 -0.2475 10.0625 -0.375 C11.09511963 -0.42962402 12.12773926 -0.48424805 13.19165039 -0.54052734 C18.0247474 -0.62724057 21.27231427 -0.36176054 25.13671875 2.70703125 C27.14560772 4.73659952 27.95071248 5.85101726 28.859375 8.59765625 C28.527746 16.07115275 28.527746 16.07115275 25.5 19.125 C24.675 19.74375 23.85 20.3625 23 21 C24.46312509 24.90166692 26.26476306 28.54551489 28.1953125 32.23046875 C29 34 29 34 29 36 C26.03 36 23.06 36 20 36 C19.16209211 34.21046815 18.32980604 32.41830305 17.5 30.625 C17.0359375 29.62726562 16.571875 28.62953125 16.09375 27.6015625 C15 25 15 25 15 23 C12.69 23 10.38 23 8 23 C8.01160156 23.85464844 8.02320313 24.70929687 8.03515625 25.58984375 C8.04417969 26.69457031 8.05320312 27.79929687 8.0625 28.9375 C8.07410156 30.03964844 8.08570313 31.14179687 8.09765625 32.27734375 C8 35 8 35 7 36 C4.69 36 2.38 36 0 36 C0 24.12 0 12.24 0 0 Z " fill="#EB8406" transform="translate(356,892)"/>
<path d="M0 0 C2.64 0 5.28 0 8 0 C8 4.62 8 9.24 8 14 C12.62 14 17.24 14 22 14 C22 9.38 22 4.76 22 0 C24.64 0 27.28 0 30 0 C30.02465098 4.96622349 30.04283649 9.93241166 30.05493164 14.89868164 C30.0599719 16.58944316 30.06680405 18.28020029 30.07543945 19.97094727 C30.08751857 22.39600707 30.09323123 24.82100944 30.09765625 27.24609375 C30.10281754 28.00651474 30.10797882 28.76693573 30.11329651 29.55039978 C30.11349238 31.3673257 30.06197277 33.18413127 30 35 C29 36 29 36 27.15234375 36.09765625 C25.1015625 36.06510417 23.05078125 36.03255208 21 36 C21 31.38 21 26.76 21 22 C16.71 22 12.42 22 8 22 C8.020625 24.124375 8.04125 26.24875 8.0625 28.4375 C8.08373783 30.62499611 8.07258946 32.81360547 8 35 C7.505 35.495 7.505 35.495 7 36 C4.69 36 2.38 36 0 36 C0 24.12 0 12.24 0 0 Z " fill="#EF8704" transform="translate(733,892)"/>
<path d="M0 0 C3.17625 -0.061875 6.3525 -0.12375 9.625 -0.1875 C11.1092749 -0.22846802 11.1092749 -0.22846802 12.62353516 -0.27026367 C17.82669214 -0.31917145 21.54756216 -0.01276945 26 3 C28.83160532 7.24740799 28.64522317 11.01346043 28 16 C25.66373857 20.15335365 23.44598138 21.55633363 19 23 C15.30979892 23.24900142 11.7047205 23.08927037 8 23 C8 27.29 8 31.58 8 36 C5.36 36 2.72 36 0 36 C0 24.12 0 12.24 0 0 Z " fill="#DD7C04" transform="translate(445,892)"/>
<path d="M0 0 C7 0 7 0 8.66503906 1.29760742 C9.2098291 2.19249878 9.2098291 2.19249878 9.765625 3.10546875 C10.18070313 3.75966797 10.59578125 4.41386719 11.0234375 5.08789062 C11.42820312 5.78076172 11.83296875 6.47363281 12.25 7.1875 C12.67023437 7.86103516 13.09046875 8.53457031 13.5234375 9.22851562 C14.70836682 11.13818945 15.85788738 13.06448362 17 15 C17.99 16.65 18.98 18.3 20 20 C20.33 13.4 20.66 6.8 21 0 C23.31 0 25.62 0 28 0 C28 11.88 28 23.76 28 36 C21 36 21 36 19.3190918 34.6105957 C18.94953369 33.97210693 18.57997559 33.33361816 18.19921875 32.67578125 C17.77962891 31.97646484 17.36003906 31.27714844 16.92773438 30.55664062 C16.51845703 29.81607422 16.10917969 29.07550781 15.6875 28.3125 C15.04458008 27.2306543 15.04458008 27.2306543 14.38867188 26.12695312 C12.27623798 22.51834921 10.4100136 18.94959611 9 15 C8.34 15 7.68 15 7 15 C7 21.93 7 28.86 7 36 C4.69 36 2.38 36 0 36 C0 24.12 0 12.24 0 0 Z " fill="#F28A07" transform="translate(828,892)"/>
<path d="M0 0 C2.1640625 -0.29296875 2.1640625 -0.29296875 4.625 -0.1875 C5.44226563 -0.16042969 6.25953125 -0.13335938 7.1015625 -0.10546875 C8.04128906 -0.05326172 8.04128906 -0.05326172 9 0 C15.73828125 17.96875 15.73828125 17.96875 16.90869141 21.10546875 C17.57932506 22.88422325 18.26136685 24.65878767 18.96240234 26.42578125 C20.33120261 29.89566176 21 32.20747183 21 36 C18.69 36 16.38 36 14 36 C13.65324219 35.02804687 13.30648437 34.05609375 12.94921875 33.0546875 C11.27792473 29.65603127 11.27792473 29.65603127 7.64453125 29.1953125 C6.37996094 29.17210937 5.11539063 29.14890625 3.8125 29.125 C2.54019531 29.08632813 1.26789062 29.04765625 -0.04296875 29.0078125 C-1.01878906 29.00523437 -1.99460937 29.00265625 -3 29 C-3.144375 29.78375 -3.28875 30.5675 -3.4375 31.375 C-4 34 -4 34 -5 36 C-7.64 36 -10.28 36 -13 36 C-11.9705934 30.04042391 -9.80094023 24.49994442 -7.76196289 18.82470703 C-7.06285613 16.87599268 -6.37192996 14.92450885 -5.68164062 12.97265625 C-5.24142578 11.74160156 -4.80121094 10.51054688 -4.34765625 9.2421875 C-3.94554932 8.1166748 -3.54344238 6.99116211 -3.12915039 5.83154297 C-2 3 -2 3 0 0 Z " fill="#EA8505" transform="translate(791,892)"/>
<path d="M0 0 C3.3835382 2.17863433 4.51917989 3.45370645 5.63671875 7.40234375 C5.65734375 8.28921875 5.67796875 9.17609375 5.69921875 10.08984375 C4.42046875 10.15171875 3.14171875 10.21359375 1.82421875 10.27734375 C1.10492187 10.31214844 0.385625 10.34695313 -0.35546875 10.3828125 C-0.99742187 10.28613281 -1.639375 10.18945312 -2.30078125 10.08984375 C-2.96078125 9.09984375 -3.62078125 8.10984375 -4.30078125 7.08984375 C-6.43566401 6.6505151 -6.43566401 6.6505151 -8.80078125 6.77734375 C-9.991875 6.78314453 -9.991875 6.78314453 -11.20703125 6.7890625 C-13.51811161 6.9075921 -13.51811161 6.9075921 -15.30078125 9.08984375 C-15.49930227 11.79907176 -15.57917602 14.38287554 -15.55078125 17.08984375 C-15.55851563 17.8271875 -15.56625 18.56453125 -15.57421875 19.32421875 C-15.7108699 23.67406278 -15.7108699 23.67406278 -13.30078125 27.08984375 C-10.86065176 27.33271864 -10.86065176 27.33271864 -8.17578125 27.21484375 C-7.26570312 27.19679688 -6.355625 27.17875 -5.41796875 27.16015625 C-4.36996094 27.12535156 -4.36996094 27.12535156 -3.30078125 27.08984375 C-2.97078125 24.77984375 -2.64078125 22.46984375 -2.30078125 20.08984375 C-4.28078125 20.08984375 -6.26078125 20.08984375 -8.30078125 20.08984375 C-8.30078125 18.43984375 -8.30078125 16.78984375 -8.30078125 15.08984375 C-3.68078125 15.08984375 0.93921875 15.08984375 5.69921875 15.08984375 C6.36886161 27.14341518 6.36886161 27.14341518 3.57421875 30.71484375 C-1.2871037 34.73071882 -5.88490507 35.56231532 -12.0546875 35.40625 C-16.65376264 34.75838028 -20.01802149 32.67372082 -22.96484375 29.03515625 C-24.84951723 24.8800574 -24.81467649 21.16482399 -24.80078125 16.65234375 C-24.82914063 15.81896484 -24.8575 14.98558594 -24.88671875 14.12695312 C-24.89991047 9.95507046 -24.68811512 6.98201758 -22.08203125 3.6171875 C-16.15354121 -1.77007803 -7.5332413 -2.98004282 0 0 Z " fill="#EF8D07" transform="translate(898.30078125,892.91015625)"/>
<path d="M0 0 C8.25 0 16.5 0 25 0 C25 2.31 25 4.62 25 7 C19.39 7 13.78 7 8 7 C8 9.31 8 11.62 8 14 C13.28 14 18.56 14 24 14 C24 16.31 24 18.62 24 21 C18.72 21 13.44 21 8 21 C8 23.64 8 26.28 8 29 C13.94 29 19.88 29 26 29 C26 30.98 26 32.96 26 35 C25 36 25 36 22.59155273 36.11352539 C21.54942627 36.10828857 20.5072998 36.10305176 19.43359375 36.09765625 C18.42095459 36.09515869 17.40831543 36.09266113 16.36499023 36.09008789 C15.06891846 36.08098389 13.77284668 36.07187988 12.4375 36.0625 C8.333125 36.041875 4.22875 36.02125 0 36 C0 24.12 0 12.24 0 0 Z " fill="#E78404" transform="translate(600,892)"/>
<path d="M0 0 C8.25 0 16.5 0 25 0 C25 2.31 25 4.62 25 7 C19.39 7 13.78 7 8 7 C8 9.31 8 11.62 8 14 C9.60681641 13.98259766 9.60681641 13.98259766 11.24609375 13.96484375 C12.64322743 13.95546701 14.04036299 13.94636669 15.4375 13.9375 C16.14455078 13.92912109 16.85160156 13.92074219 17.58007812 13.91210938 C19.38693559 13.90346412 21.19387603 13.94779989 23 14 C24 15 24 15 24 21 C18.72 21 13.44 21 8 21 C8 23.64 8 26.28 8 29 C13.94 29 19.88 29 26 29 C26 30.98 26 32.96 26 35 C25 36 25 36 22.59155273 36.11352539 C21.54942627 36.10828857 20.5072998 36.10305176 19.43359375 36.09765625 C18.42095459 36.09515869 17.40831543 36.09266113 16.36499023 36.09008789 C15.06891846 36.08098389 13.77284668 36.07187988 12.4375 36.0625 C8.333125 36.041875 4.22875 36.02125 0 36 C0 24.12 0 12.24 0 0 Z " fill="#E48805" transform="translate(922,892)"/>
<path d="M0 0 C3.15994505 -0.56879011 5.86585831 -0.7797133 9 0 C11.59844343 2.69293228 13.3166991 5.67300529 15 9 C18.07343342 8.34351476 18.07343342 8.34351476 19.0703125 6.15234375 C19.41835938 5.42144531 19.76640625 4.69054687 20.125 3.9375 C21.39453125 1.74609375 21.39453125 1.74609375 23 0 C26.10230487 -0.7038843 28.87401724 -0.49035024 32 0 C30.00961275 4.33015099 27.28386122 8.23066987 24.5703125 12.13476562 C22.83187288 14.81433893 21.86324285 16.32042218 22.5078125 19.5234375 C24.29095146 22.48288803 26.15632312 25.34738371 28.125 28.1875 C32 33.77935943 32 33.77935943 32 36 C28.81176617 36.63764677 26.15600623 36.87239197 23 36 C20.36391376 32.96450676 18.66022399 29.64598209 17 26 C13.28702888 27.23765704 13.13452385 28.22647352 11.3125 31.5625 C8.63411085 35.8263336 8.63411085 35.8263336 5.83203125 36.59375 C3.625 36.5625 3.625 36.5625 0 36 C1.86312569 30.60882779 5.15021187 26.48661016 8.515625 21.9375 C10.30941149 19.15230575 10.30941149 19.15230575 9.45703125 16.4765625 C7.84157024 13.73071189 6.192264 11.03462143 4.4375 8.375 C2.56250053 5.52936671 1.0790587 3.23717611 0 0 Z " fill="#EF8806" transform="translate(640,892)"/>
<path d="M0 0 C4.18068368 1.46690656 6.89902529 3.03149221 9 7 C9.1875 9.75 9.1875 9.75 9 12 C6.36 12 3.72 12 1 12 C0.814375 11.360625 0.62875 10.72125 0.4375 10.0625 C-0.93371463 7.63772948 -0.93371463 7.63772948 -4.375 7 C-7.95735078 6.65049033 -7.95735078 6.65049033 -10.203125 8.5625 C-12.61767275 11.83788651 -12.46896052 13.9682394 -12.375 18 C-12.36210938 19.216875 -12.34921875 20.43375 -12.3359375 21.6875 C-12.02898877 24.71415724 -11.58986788 26.45621139 -10 29 C-5.93826373 28.80306766 -5.93826373 28.80306766 -2 28 C-0.66172696 26.33729713 0.67189785 24.67083819 2 23 C5.75 22.6875 5.75 22.6875 9 23 C8.76099616 29.09459794 8.76099616 29.09459794 6.703125 31.54296875 C1.43526348 35.98935682 -3.28331299 36.56670204 -9.97265625 36.55859375 C-14.4429135 35.73375919 -16.17495803 33.49969201 -18.79296875 29.9453125 C-21.21224121 26.04629087 -21.25205561 22.74706271 -21.3125 18.25 C-21.34150391 17.54617188 -21.37050781 16.84234375 -21.40039062 16.1171875 C-21.4770255 9.77417803 -19.05347999 6.43850749 -15 1.625 C-10.18021747 -0.98571554 -5.35762862 -0.60255173 0 0 Z " fill="#E98506" transform="translate(706,892)"/>
<path d="M0 0 C3.81171404 1.4764181 5.72213348 3.58320023 8 7 C8.125 9.6875 8.125 9.6875 8 12 C5.36 12 2.72 12 0 12 C-0.185625 11.360625 -0.37125 10.72125 -0.5625 10.0625 C-1.93198035 7.61835167 -1.93198035 7.61835167 -5.4375 7.125 C-9.10622176 6.64937195 -9.10622176 6.64937195 -12 9 C-12.24922317 11.89276889 -12.32624578 14.55207371 -12.25 17.4375 C-12.24484375 18.21416016 -12.2396875 18.99082031 -12.234375 19.79101562 C-12.18884821 23.09455327 -12.05046877 25.8485937 -11 29 C-6.95220827 28.74602085 -6.95220827 28.74602085 -3 28 C-2.505 27.319375 -2.01 26.63875 -1.5 25.9375 C0 24 0 24 1.94921875 23.73828125 C3.968004 23.74885081 5.9855135 23.86790252 8 24 C8.3125 26.1875 8.3125 26.1875 8 29 C5.09149125 32.57331075 2.48886369 34.87778408 -2 36 C-8.56496183 36.5630533 -13.18389215 36.06854377 -18.58984375 32.09765625 C-22.10374603 27.58140908 -21.84564434 23.70061405 -21.8125 18.125 C-21.85697266 17.15691406 -21.90144531 16.18882812 -21.94726562 15.19140625 C-21.96123639 11.08400173 -21.83795776 8.16429746 -19.39453125 4.76928711 C-13.39893193 -0.90275163 -7.99154027 -1.33019136 0 0 Z " fill="#EC8705" transform="translate(330,892)"/>
<path d="M0 0 C3.24977541 -0.79586337 5.7880599 -1.03331829 9 0 C11.97275969 3.6954195 13.94773563 7.74277303 16 12 C16.33 12.33 16.66 12.66 17 13 C17.49371094 12.14535156 17.98742187 11.29070313 18.49609375 10.41015625 C19.13675781 9.30542969 19.77742188 8.20070313 20.4375 7.0625 C21.07558594 5.96035156 21.71367187 4.85820313 22.37109375 3.72265625 C24 1 24 1 25 0 C27.67058851 -0.14115161 30.32432238 -0.04247107 33 0 C31.92311475 3.06588642 30.59208133 5.75597386 28.87109375 8.49609375 C23.79076891 16.65838564 21 22.61534165 21 32.40234375 C21 33.25957031 21 34.11679687 21 35 C20 36 20 36 16.4375 36.0625 C15.303125 36.041875 14.16875 36.02125 13 36 C13.05542969 35.20980469 13.11085938 34.41960938 13.16796875 33.60546875 C13.23411719 22.02949159 8.26846282 14.34166831 2.10742188 4.86254883 C1 3 1 3 0 0 Z " fill="#EC8505" transform="translate(397,892)"/>
<path d="M0 0 C9.57 0 19.14 0 29 0 C29 2.31 29 4.62 29 7 C25.37 7 21.74 7 18 7 C18 16.57 18 26.14 18 36 C15.36 36 12.72 36 10 36 C10 26.43 10 16.86 10 7 C6.7 7 3.4 7 0 7 C0 4.69 0 2.38 0 0 Z " fill="#EA8505" transform="translate(487,892)"/>
<path d="M0 0 C5.94 0 11.88 0 18 0 C16.68 0.33 15.36 0.66 14 1 C14 1.66 14 2.32 14 3 C14.99 3.66 15.98 4.32 17 5 C14.03 5 11.06 5 8 5 C8 8.3 8 11.6 8 15 C11.63 15 15.26 15 19 15 C16.64046906 17.35953094 15.22104383 17.49141413 12 18 C12.66 18.99 13.32 19.98 14 21 C12.02 21 10.04 21 8 21 C8.01160156 21.92683594 8.02320313 22.85367188 8.03515625 23.80859375 C8.04417969 25.00613281 8.05320312 26.20367188 8.0625 27.4375 C8.07410156 28.63246094 8.08570313 29.82742188 8.09765625 31.05859375 C8 34 8 34 7 35 C4.69 35 2.38 35 0 35 C0 23.45 0 11.9 0 0 Z " fill="#F28F09" transform="translate(356,893)"/>
<path d="M0 0 C11.89019083 -0.78339471 11.89019083 -0.78339471 16.1875 2.25 C19.49394262 7.26667156 20.3639219 10.83743804 20.375 16.875 C20.39949219 17.56980469 20.42398438 18.26460937 20.44921875 18.98046875 C20.47852066 24.16690608 19.28944803 27.04112045 16 31 C13.55584214 33.44929265 12.46041908 33.95527017 8.984375 34.29296875 C7.91703125 34.25816406 6.8496875 34.22335937 5.75 34.1875 C4.13351562 34.14689453 4.13351562 34.14689453 2.484375 34.10546875 C1.25460937 34.05326172 1.25460937 34.05326172 0 34 C0.33 32.35 0.66 30.7 1 29 C2.27875 28.9175 3.5575 28.835 4.875 28.75 C7.04634555 28.69632215 7.04634555 28.69632215 9 28 C11.54308748 24.68432899 11.33210691 21.04910801 11.375 17 C11.40335938 15.783125 11.43171875 14.56625 11.4609375 13.3125 C11.26865811 9.9474602 11.26865811 9.9474602 9.1796875 7.609375 C6.479447 5.61564904 4.30739723 5.30067248 1 5 C1.66 4.01 2.32 3.02 3 2 C2.01 1.34 1.02 0.68 0 0 Z " fill="#F18905" transform="translate(540,893)"/>
<path d="M0 0 C5.94 0 11.88 0 18 0 C16.68 0.33 15.36 0.66 14 1 C14.66 2.32 15.32 3.64 16 5 C13.03 5 10.06 5 7 5 C7 8.63 7 12.26 7 16 C10.3 16 13.6 16 17 16 C17 16.33 17 16.66 17 17 C14.03 17.66 11.06 18.32 8 19 C11.63 19.33 15.26 19.66 19 20 C18.67 20.66 18.34 21.32 18 22 C14.37 22 10.74 22 7 22 C7 25.96 7 29.92 7 34 C4.69 34 2.38 34 0 34 C0 22.78 0 11.56 0 0 Z " fill="#F79107" transform="translate(446,893)"/>
<path d="M0 0 C0.78246094 -0.02835938 1.56492187 -0.05671875 2.37109375 -0.0859375 C4.5625 0.375 4.5625 0.375 6.3203125 1.9609375 C7.98901392 5.20388554 7.99614929 7.73992685 8 11.375 C8.01933594 12.591875 8.03867187 13.80875 8.05859375 15.0625 C7.5625 18.375 7.5625 18.375 5.79296875 20.78515625 C2.1684384 23.36866562 -0.07058071 22.86803927 -4.4375 22.375 C-7.01278248 18.51207629 -6.73204471 15.28553122 -6.6875 10.8125 C-6.69523438 10.03197266 -6.70296875 9.25144531 -6.7109375 8.44726562 C-6.69045146 2.51143646 -6.21271466 0.10201502 0 0 Z " fill="#0E0700" transform="translate(544.4375,898.625)"/>
<path d="M0 0 C1.17755859 -0.01160156 1.17755859 -0.01160156 2.37890625 -0.0234375 C3.05824219 0.10804688 3.73757813 0.23953125 4.4375 0.375 C5.0975 1.365 5.7575 2.355 6.4375 3.375 C8.40111864 3.95248803 8.40111864 3.95248803 10.5625 4.0625 C11.84125 4.165625 13.12 4.26875 14.4375 4.375 C14.4375 6.025 14.4375 7.675 14.4375 9.375 C9.8175 9.375 5.1975 9.375 0.4375 9.375 C0.4375 11.025 0.4375 12.675 0.4375 14.375 C2.4175 14.375 4.3975 14.375 6.4375 14.375 C6.18188677 16.7181213 5.84479228 19.05343403 5.4375 21.375 C2.32200128 22.93274936 -1.1669388 22.93980622 -4.5625 22.375 C-6.29296875 21.359375 -6.29296875 21.359375 -7.5625 19.375 C-7.86084873 16.61381175 -7.98161153 14.12951984 -7.9375 11.375 C-7.94910156 10.65054688 -7.96070313 9.92609375 -7.97265625 9.1796875 C-7.95624821 6.21530153 -7.92230864 3.94933177 -6.32421875 1.3984375 C-4.08902598 0.09994414 -2.57773366 -0.02548007 0 0 Z " fill="#120900" transform="translate(889.5625,898.625)"/>
<path d="M0 0 C2.64 0 5.28 0 8 0 C8 4.62 8 9.24 8 14 C7.67 14 7.34 14 7 14 C7 9.71 7 5.42 7 1 C5.02 1 3.04 1 1 1 C1.33 11.89 1.66 22.78 2 34 C3.32 34 4.64 34 6 34 C6 29.71 6 25.42 6 21 C11.28 21 16.56 21 22 21 C22 25.62 22 30.24 22 35 C24.31 35 26.62 35 29 35 C29 35.33 29 35.66 29 36 C26.36 36 23.72 36 21 36 C21 31.38 21 26.76 21 22 C16.71 22 12.42 22 8 22 C8.020625 24.124375 8.04125 26.24875 8.0625 28.4375 C8.08373783 30.62499611 8.07258946 32.81360547 8 35 C7.505 35.495 7.505 35.495 7 36 C4.69 36 2.38 36 0 36 C0 24.12 0 12.24 0 0 Z " fill="#B06503" transform="translate(733,892)"/>
<path d="M0 0 C12.58142356 -0.92966184 12.58142356 -0.92966184 17.796875 3.48828125 C19.67001288 5.84186683 19.93153835 8.05614891 20 11 C18.72125 11.061875 17.4425 11.12375 16.125 11.1875 C15.40570312 11.22230469 14.68640625 11.25710938 13.9453125 11.29296875 C13.30335938 11.19628906 12.66140625 11.09960938 12 11 C11.34 10.01 10.68 9.02 10 8 C8.03638136 7.42251197 8.03638136 7.42251197 5.875 7.3125 C3.956875 7.1578125 3.956875 7.1578125 2 7 C1.34 4.69 0.68 2.38 0 0 Z " fill="#E68606" transform="translate(884,892)"/>
<path d="M0 0 C1.62463842 -0.05395478 3.24978541 -0.09277195 4.875 -0.125 C5.77992188 -0.14820313 6.68484375 -0.17140625 7.6171875 -0.1953125 C10 0 10 0 12 2 C12.125 5.125 12.125 5.125 12 8 C9.47524538 9.26237731 7.68799534 9.09856404 4.875 9.0625 C3.96492188 9.05347656 3.05484375 9.04445313 2.1171875 9.03515625 C1.41851562 9.02355469 0.71984375 9.01195312 0 9 C0 6.03 0 3.06 0 0 Z " fill="#100900" transform="translate(453,899)"/>
<path d="M0 0 C1.62463842 -0.05395478 3.24978541 -0.09277195 4.875 -0.125 C5.77992188 -0.14820313 6.68484375 -0.17140625 7.6171875 -0.1953125 C10 0 10 0 12 2 C12.25 4.5 12.25 4.5 12 7 C10 9 10 9 7.6171875 9.1953125 C6.71226562 9.17210937 5.80734375 9.14890625 4.875 9.125 C3.50988281 9.09792969 3.50988281 9.09792969 2.1171875 9.0703125 C1.41851562 9.04710937 0.71984375 9.02390625 0 9 C0 6.03 0 3.06 0 0 Z " fill="#0F0700" transform="translate(364,899)"/>
<path d="M0 0 C6.27 0 12.54 0 19 0 C19 1.32 19 2.64 19 4 C13.06 4 7.12 4 1 4 C0.67 2.68 0.34 1.36 0 0 Z " fill="#F69607" transform="translate(928,894)"/>
<path d="M0 0 C0.66 0 1.32 0 2 0 C2.67057887 1.7902061 3.3363469 3.58221489 4 5.375 C4.556875 6.87160156 4.556875 6.87160156 5.125 8.3984375 C6 11 6 11 6 13 C3.03 13 0.06 13 -3 13 C-2.45144652 8.428721 -1.58255197 4.32564205 0 0 Z " fill="#120A01" transform="translate(794,901)"/>
<path d="M0 0 C0.33 0.66 0.66 1.32 1 2 C1.66 2 2.32 2 3 2 C3 5.96 3 9.92 3 14 C1.02 14.99 1.02 14.99 -1 16 C-1.02701408 13.89590361 -1.04640223 11.79170822 -1.0625 9.6875 C-1.07410156 8.51574219 -1.08570313 7.34398437 -1.09765625 6.13671875 C-1 3 -1 3 0 0 Z " fill="#E19509" transform="translate(328,582)"/>
<path d="M0 0 C5.94 0 11.88 0 18 0 C18 1.98 18 3.96 18 6 C13.71 5.67 9.42 5.34 5 5 C5.66 4.01 6.32 3.02 7 2 C9.12890625 1.7421875 9.12890625 1.7421875 11.5625 1.875 C13.04055167 1.94594648 14.52025793 1.99420845 16 2 C16.33 1.67 16.66 1.34 17 1 C11.39 1 5.78 1 0 1 C0 0.67 0 0.34 0 0 Z " fill="#DB7602" transform="translate(608,921)"/>
<path d="M0 0 C2 2 2 2 2.6875 4 C4.69901363 7.06516363 7.57447524 7.06576598 11 8 C11.33 8.99 11.66 9.98 12 11 C9.03 11 6.06 11 3 11 C1.68 7.7 0.36 4.4 -1 1 C-0.67 0.67 -0.34 0.34 0 0 Z " fill="#D87F08" transform="translate(373,917)"/>
<path d="M0 0 C2.97 0 5.94 0 9 0 C9.33 0.99 9.66 1.98 10 3 C7.03 5.475 7.03 5.475 4 8 C0 2.25 0 2.25 0 0 Z " fill="#DF7E02" transform="translate(640,892)"/>
<path d="M0 0 C5.28 0 10.56 0 16 0 C16 0.66 16 1.32 16 2 C12.79619983 4.13586678 11.98060033 4.23132175 8.3125 4.125 C7.50425781 4.10695313 6.69601562 4.08890625 5.86328125 4.0703125 C4.94095703 4.03550781 4.94095703 4.03550781 4 4 C3.67 3.01 3.34 2.02 3 1 C2.01 0.67 1.02 0.34 0 0 Z " fill="#2E1B02" transform="translate(367,741)"/>
<path d="M0 0 C0 0.66 0 1.32 0 2 C0.99 2 1.98 2 3 2 C3 2.66 3 3.32 3 4 C0.03 4 -2.94 4 -6 4 C-6.33 2.68 -6.66 1.36 -7 0 C-4.3333581 -1.33332095 -2.83319697 -0.67102033 0 0 Z " fill="#D9830C" transform="translate(669,924)"/>
<path d="M0 0 C2.97 0 5.94 0 9 0 C7.38262276 3.23475448 6.52370777 4.70572021 4 7 C4 5.35 4 3.7 4 2 C2.35 2.33 0.7 2.66 -1 3 C-0.67 2.01 -0.34 1.02 0 0 Z " fill="#DE8302" transform="translate(663,892)"/>
<path d="M0 0 C1.65 0.99 3.3 1.98 5 3 C3.03617993 4.50559539 1.21736634 5.89131683 -1 7 C-1.33 7.825 -1.66 8.65 -2 9.5 C-3 12 -3 12 -5 13 C-4.54554036 11.58208592 -4.08625056 10.16571954 -3.625 8.75 C-3.24214844 7.56664062 -3.24214844 7.56664062 -2.8515625 6.359375 C-2.04826333 4.13372042 -1.10288338 2.09068328 0 0 Z " fill="#E37906" transform="translate(855,637)"/>
<path d="M0 0 C0.66 0 1.32 0 2 0 C2.99 3.3 3.98 6.6 5 10 C4.01 9.01 3.02 8.02 2 7 C0.02 7.99 0.02 7.99 -2 9 C-1.34 6.03 -0.68 3.06 0 0 Z " fill="#321E02" transform="translate(794,901)"/>
<path d="M0 0 C-2 3 -2 3 -4.3125 3.546875 C-5.6428125 3.64742187 -5.6428125 3.64742187 -7 3.75 C-7.886875 3.82734375 -8.77375 3.9046875 -9.6875 3.984375 C-12 4 -12 4 -14 3 C-9.07015675 0.96006486 -5.42039575 -0.40652968 0 0 Z " fill="#DA8503" transform="translate(498,547)"/>
<path d="M0 0 C0.99 0.33 1.98 0.66 3 1 C1.8141763 4.37503669 0.72426311 6.64722731 -2 9 C-3.04940314 5.85179059 -3.066855 5.00659136 -2 2 C-1.34 1.34 -0.68 0.68 0 0 Z " fill="#EA8808" transform="translate(773,642)"/>
<path d="M0 0 C0.66 0.99 1.32 1.98 2 3 C-2.14285714 9.42857143 -2.14285714 9.42857143 -5 12 C-5 7.86021808 -4.67617664 7.01426496 -2.5 3.75 C-2.0359375 3.04359375 -1.571875 2.3371875 -1.09375 1.609375 C-0.7328125 1.07828125 -0.371875 0.5471875 0 0 Z " fill="#DF8303" transform="translate(748,582)"/>
<path d="M0 0 C0 0.99 0 1.98 0 3 C-3.96 3 -7.92 3 -12 3 C-8.48214012 -0.51785988 -4.80656342 -0.10924008 0 0 Z " fill="#CF8F03" transform="translate(579,298)"/>
<path d="M0 0 C0.33 0.99 0.66 1.98 1 3 C-0.87109375 5.69921875 -0.87109375 5.69921875 -3.4375 8.6875 C-4.28183594 9.68136719 -5.12617188 10.67523437 -5.99609375 11.69921875 C-6.98802734 12.83810547 -6.98802734 12.83810547 -8 14 C-8 9.96618977 -6.40426438 8.50566363 -4 5.3125 C-3.2575 4.31863281 -2.515 3.32476563 -1.75 2.30078125 C-1.1725 1.54152344 -0.595 0.78226563 0 0 Z " fill="#241501" transform="translate(474,636)"/>
<path d="M0 0 C0.66 0.33 1.32 0.66 2 1 C-0.12741392 5.70270446 -2.62060825 9.16393369 -6 13 C-6 9.32965255 -4.9247108 7.9000569 -3 4.8125 C-2.443125 3.91144531 -1.88625 3.01039063 -1.3125 2.08203125 C-0.6628125 1.05142578 -0.6628125 1.05142578 0 0 Z " fill="#DE8803" transform="translate(444,606)"/>
<path d="M0 0 C0.66 0 1.32 0 2 0 C1.6875 3.375 1.6875 3.375 1 7 C0.01 7.66 -0.98 8.32 -2 9 C-2.66 8.34 -3.32 7.68 -4 7 C-3.34 6.34 -2.68 5.68 -2 5 C-1.29289322 3.35008418 -0.62056011 1.68437744 0 0 Z " fill="#EA9004" transform="translate(906,480)"/>
<path d="M0 0 C-0.598125 0.28875 -1.19625 0.5775 -1.8125 0.875 C-4.19327792 2.04742026 -4.19327792 2.04742026 -7 4 C-9.26171875 4.1953125 -9.26171875 4.1953125 -11.6875 4.125 C-12.89986328 4.09792969 -12.89986328 4.09792969 -14.13671875 4.0703125 C-15.05904297 4.03550781 -15.05904297 4.03550781 -16 4 C-13.41588269 2.27725513 -11.45097344 1.31104478 -8.5625 0.3125 C-7.41974609 -0.09548828 -7.41974609 -0.09548828 -6.25390625 -0.51171875 C-3.78170279 -1.04729142 -2.37016716 -0.80445309 0 0 Z " fill="#B57A03" transform="translate(556,305)"/>
<path d="M0 0 C0.33 0.66 0.66 1.32 1 2 C-1.33333333 4.33333333 -3.66666667 6.66666667 -6 9 C-6.99 8.67 -7.98 8.34 -9 8 C-6.03 5.36 -3.06 2.72 0 0 Z " fill="#E7A005" transform="translate(458,358)"/>
<path d="M0 0 C1.98 0 3.96 0 6 0 C5.67 2.31 5.34 4.62 5 7 C4.01 6.67 3.02 6.34 2 6 C2.33 4.35 2.66 2.7 3 1 C2.01 0.67 1.02 0.34 0 0 Z " fill="#2E1801" transform="translate(890,913)"/>
<path d="M0 0 C1 3 1 3 0.22265625 5.04296875 C-0.16019531 5.75066406 -0.54304687 6.45835937 -0.9375 7.1875 C-1.31777344 7.90292969 -1.69804688 8.61835937 -2.08984375 9.35546875 C-2.54037109 10.16951172 -2.54037109 10.16951172 -3 11 C-3.99 10.67 -4.98 10.34 -6 10 C-4.02 6.7 -2.04 3.4 0 0 Z " fill="#150B01" transform="translate(779,638)"/>
<path d="M0 0 C-1.60256108 0.50512244 -3.20711792 1.00391627 -4.8125 1.5 C-6.15248047 1.91765625 -6.15248047 1.91765625 -7.51953125 2.34375 C-10 3 -10 3 -13 3 C-13 2.34 -13 1.68 -13 1 C-11.59054634 0.43983252 -10.1719969 -0.09748502 -8.75 -0.625 C-7.96109375 -0.92664063 -7.1721875 -1.22828125 -6.359375 -1.5390625 C-3.50082285 -2.09752136 -2.41040161 -1.53690745 0 0 Z " fill="#DE9F05" transform="translate(574,333)"/>
<path d="M0 0 C3.1414436 1.83250877 6.22602027 3.63698023 9 6 C9 6.66 9 7.32 9 8 C4.75153925 7.52794881 2.73180712 5.11122478 0 2 C0 1.34 0 0.68 0 0 Z " fill="#DD8306" transform="translate(309,919)"/>
<path d="M0 0 C0.33 0 0.66 0 1 0 C1.42820102 3.63970867 0.97413512 5.04569463 -0.875 8.3125 C-1.926875 9.6428125 -1.926875 9.6428125 -3 11 C-3.66 11 -4.32 11 -5 11 C-3.55049545 7.2089881 -1.84827434 3.6125362 0 0 Z " fill="#E08301" transform="translate(370,727)"/>
<path d="M0 0 C0.66 0 1.32 0 2 0 C2 1.65 2 3.3 2 5 C2.66 5 3.32 5 4 5 C4 5.66 4 6.32 4 7 C4.66 7.33 5.32 7.66 6 8 C3.03 7.505 3.03 7.505 0 7 C0 4.69 0 2.38 0 0 Z " fill="#C48806" transform="translate(367,521)"/>
<path d="M0 0 C2.0625 0.4375 2.0625 0.4375 4 1 C4 1.99 4 2.98 4 4 C2.02 4.33 0.04 4.66 -2 5 C-1.125 1.125 -1.125 1.125 0 0 Z " fill="#F88E07" transform="translate(708,920)"/>
<path d="M0 0 C0.66 1.32 1.32 2.64 2 4 C1.67 4 1.34 4 1 4 C0.34 6.31 -0.32 8.62 -1 11 C-1.66 11 -2.32 11 -3 11 C-2.69078116 9.54096742 -2.37751201 8.08279278 -2.0625 6.625 C-1.88847656 5.81289063 -1.71445312 5.00078125 -1.53515625 4.1640625 C-1 2 -1 2 0 0 Z " fill="#D07502" transform="translate(785,906)"/>
<path d="M0 0 C0.66 0.66 1.32 1.32 2 2 C-0.88406243 5.40843742 -2.3708265 6.86591384 -6.8125 7.8125 C-8.3903125 7.9053125 -8.3903125 7.9053125 -10 8 C-7 6 -7 6 -4.4375 4.5625 C-1.76176498 3.0772081 -1.76176498 3.0772081 0 0 Z " fill="#331C01" transform="translate(903,920)"/>
<path d="M0 0 C0.33 0.99 0.66 1.98 1 3 C-1.97 5.475 -1.97 5.475 -5 8 C-5.66 7.67 -6.32 7.34 -7 7 C-4.69 4.69 -2.38 2.38 0 0 Z " fill="#E67601" transform="translate(802,723)"/>
<path d="M0 0 C0.66 0.33 1.32 0.66 2 1 C-0.36292656 3.52588702 -1.66462511 4.88820837 -5 6 C-5.66 5.34 -6.32 4.68 -7 4 C-1.7265625 0.77734375 -1.7265625 0.77734375 0 0 Z " fill="#291601" transform="translate(396,734)"/>
<path d="M0 0 C-0.33 0.99 -0.66 1.98 -1 3 C-1.66 3 -2.32 3 -3 3 C-3.66 4.32 -4.32 5.64 -5 7 C-5.66 6.01 -6.32 5.02 -7 4 C-2.25 0 -2.25 0 0 0 Z " fill="#E89504" transform="translate(343,566)"/>
<path d="M0 0 C0.66 0.99 1.32 1.98 2 3 C0.515 5.475 0.515 5.475 -1 8 C-1.99 7.67 -2.98 7.34 -4 7 C-2.68 4.69 -1.36 2.38 0 0 Z " fill="#DA7F01" transform="translate(767,552)"/>
<path d="M0 0 C0.33 0.66 0.66 1.32 1 2 C-1.12055614 5.1808342 -2.63050557 6.31525278 -6 8 C-6.66 7.67 -7.32 7.34 -8 7 C-5.36 4.69 -2.72 2.38 0 0 Z " fill="#DA7103" transform="translate(786,738)"/>
<path d="M0 0 C-2.60314689 1.73543126 -3.98694043 2.61121812 -7 3 C-7.66 2.34 -8.32 1.68 -9 1 C-5.64919071 -1.10976881 -3.77897651 -1.0497157 0 0 Z " fill="#E58302" transform="translate(895,566)"/>
<path d="M0 0 C2.92879371 0.62759865 5.36095629 1.58622659 8 3 C8 3.66 8 4.32 8 5 C2.25 3.125 2.25 3.125 0 2 C0 1.34 0 0.68 0 0 Z " fill="#E09B04" transform="translate(739,346)"/>
<path d="M0 0 C0 0.66 0 1.32 0 2 C0.99 2.33 1.98 2.66 3 3 C-0.125 2.47916667 -3.25 1.95833333 -6.375 1.4375 C-7.24125 1.293125 -8.1075 1.14875 -9 1 C-9 0.67 -9 0.34 -9 0 C-5.62182575 -0.84454356 -3.32534757 -1.10844919 0 0 Z " fill="#BC8102" transform="translate(702,331)"/>
<path d="M0 0 C0.99 0.33 1.98 0.66 3 1 C3 1.66 3 2.32 3 3 C1.02 3.99 -0.96 4.98 -3 6 C-1.125 1.125 -1.125 1.125 0 0 Z " fill="#221202" transform="translate(655,917)"/>
<path d="M0 0 C0.33 0 0.66 0 1 0 C1.3125 2.25 1.3125 2.25 1 5 C-1.5 7.3125 -1.5 7.3125 -4 9 C-2.80100302 5.9168649 -1.52299523 2.93720508 0 0 Z " fill="#E38805" transform="translate(426,635)"/>
<path d="M0 0 C0.66 0.33 1.32 0.66 2 1 C0 4 0 4 -2.5 4.8125 C-3.7375 4.9053125 -3.7375 4.9053125 -5 5 C-5.66 4.34 -6.32 3.68 -7 3 C-4.69631264 1.93347808 -2.35981813 0.93578995 0 0 Z " fill="#C68803" transform="translate(538,309)"/>
</svg>
